<svg width="590" height="437" viewBox="0 0 590 437" fill="none" xmlns="http://www.w3.org/2000/svg">
<g clip-path="url(#clip0_1_32)">
<path d="M534.246 434.976H409.146V431.137C409.146 427.805 410.47 424.608 412.827 422.252C415.184 419.895 418.38 418.571 421.713 418.571H521.678C525.011 418.571 528.208 419.895 530.565 422.252C532.922 424.608 534.246 427.805 534.246 431.137V434.976Z" fill="#E6E6E6"/>
<path d="M468.768 419.337L472.572 417.805C432.767 319.012 436.601 194.377 470.25 87.462C474.247 75.0744 474.536 61.7886 471.08 49.2393C467.624 36.69 460.574 25.4245 450.799 16.8289C431.268 -0.597949 404.342 -4.84328 380.524 5.74851C357.014 16.2051 353.773 34.419 353.773 52.5442H357.875C357.875 33.1964 362.01 18.4715 382.191 9.49571C404.514 -0.430738 429.756 3.55076 448.067 19.8893C457.249 27.9624 463.871 38.5433 467.117 50.3301C470.363 62.1169 470.092 74.5955 466.338 86.2305C432.301 194.38 428.691 319.872 468.768 419.337Z" fill="#E6E6E6"/>
<path d="M356.85 113.036C364.778 113.036 371.205 106.61 371.205 98.6821C371.205 90.7546 364.778 84.3281 356.85 84.3281C348.921 84.3281 342.494 90.7546 342.494 98.6821C342.494 106.61 348.921 113.036 356.85 113.036Z" fill="#E6E6E6"/>
<path d="M334.74 123.705V96.5078H338.97V123.705C340.183 124.196 341.188 125.093 341.812 126.243C342.436 127.394 342.641 128.725 342.391 130.009C342.141 131.294 341.452 132.451 340.442 133.284C339.432 134.116 338.164 134.571 336.855 134.571C335.546 134.571 334.279 134.116 333.269 133.284C332.259 132.451 331.57 131.294 331.32 130.009C331.07 128.725 331.274 127.394 331.898 126.243C332.522 125.093 333.527 124.196 334.74 123.705Z" fill="#E6E6E6"/>
<path d="M314.295 75.613C314.302 69.3609 316.789 63.367 321.211 58.9461C325.632 54.5252 331.627 52.0385 337.879 52.0314H376.845C383.1 52.0314 389.099 54.5159 393.522 58.9383C397.945 63.3607 400.43 69.3587 400.43 75.613C400.43 81.8672 397.945 87.8652 393.522 92.2877C389.099 96.7101 383.1 99.1946 376.845 99.1946H337.879C331.627 99.1875 325.632 96.7007 321.211 92.2798C316.789 87.859 314.302 81.865 314.295 75.613Z" fill="#FF8300"/>
<path d="M259.394 221.645C263.306 171.598 283.309 147.753 270.501 132.8C258.232 118.476 223.673 121.435 201.479 135.18C141.616 172.252 119.684 320.006 196.719 392.196C269.922 460.795 408.655 438.824 439.486 382.677C446.68 369.576 452.395 346.61 441.866 332.702C415.727 298.17 320.689 360.716 278.435 321.596C253.393 298.412 257.247 249.111 259.394 221.645Z" fill="#3F3D56"/>
<path d="M305.154 196.782C303.7 197.45 302.565 198.66 301.989 200.153C301.413 201.646 301.443 203.305 302.072 204.777C302.205 205.074 302.362 205.359 302.541 205.631L289.692 222.785L296.104 232.366L311.164 206.964C312.231 206.132 312.993 204.971 313.33 203.66C313.667 202.35 313.561 200.965 313.029 199.721C312.719 199.016 312.273 198.38 311.717 197.847C311.161 197.315 310.505 196.897 309.787 196.618C309.07 196.338 308.304 196.203 307.534 196.22C306.765 196.237 306.006 196.405 305.301 196.715C305.252 196.736 305.203 196.759 305.154 196.782Z" fill="#FF8300" fill-opacity="0.5"/>
<path d="M305.144 226.358C305.985 227.104 303.652 228.024 301.185 226.572C300.479 226.152 300.177 225.977 300.098 226.088C299.9 226.366 301.058 228.412 300.749 232.958C300.558 235.671 296.052 240.771 290.935 245.745C284.017 252.472 275.972 258.961 275.972 258.961L273.148 256.7L243.532 232.958L238.534 226.041C238.991 223.309 239.679 220.621 240.588 218.005C241.842 214.384 243.331 210.849 245.047 207.423C245.967 205.559 246.911 203.782 247.816 202.148L263.683 219.631L276.98 234.275C276.98 234.275 280.851 228.04 283.85 226.342C284.233 226.098 284.668 225.948 285.12 225.906C288.15 225.763 288.333 224.113 284.818 220.52C281.304 216.926 285.738 220.282 288.864 219.314C291.99 218.346 288.864 219.314 289.523 216.894C290.181 214.475 298.948 209.62 298.948 209.62L299.313 209.945L305.937 215.792L307.833 217.465C307.833 217.465 305.763 223.145 305.192 224.343C304.62 225.541 304.311 225.604 305.144 226.358Z" fill="#0086F8"/>
<path d="M479.775 336.554L480.098 327.804L446.498 322.395L446.022 335.309L479.775 336.554Z" fill="#FF8300" fill-opacity="0.5"/>
<path d="M473.676 339.188L473.358 325.179L479.347 325.4L489.018 312.448C489.495 311.809 490.165 311.338 490.929 311.106C491.692 310.874 492.51 310.892 493.263 311.157C494.016 311.423 494.665 311.922 495.114 312.582C495.563 313.242 495.789 314.028 495.76 314.826L495.145 331.468L489.115 334.118L494.998 335.457L494.767 341.732L473.676 339.188Z" fill="#2F2E41"/>
<path d="M290.671 339.961L397.095 342.659C397.095 342.659 443.052 345.313 453.835 338.299L465.205 336.864L465.822 320.164C465.822 320.164 458.868 320.215 454.871 318.353C450.873 316.49 453.651 314.211 449.84 316.452C446.028 318.693 446.431 318.962 443.484 317.933C440.537 316.903 305.4 296.307 305.4 296.307L290.671 339.961Z" fill="#2F2E41"/>
<path d="M430.909 332.714L437.098 326.519L416.145 299.704L407.012 308.847L430.909 332.714Z" fill="#FF8300" fill-opacity="0.5"/>
<path d="M424.646 327.324L433.942 316.837L438.183 321.073L454.081 318.154C454.867 318.01 455.677 318.121 456.395 318.47C457.113 318.819 457.701 319.388 458.072 320.095C458.444 320.802 458.579 321.608 458.46 322.398C458.34 323.187 457.971 323.917 457.407 324.482L445.636 336.265L439.413 334.106L442.816 339.089L438.378 343.531L424.646 327.324Z" fill="#2F2E41"/>
<path d="M248.684 281.684L249.742 306.274C250.988 335.223 282.872 352.744 307.596 337.629C308.052 337.351 308.509 337.062 308.968 336.764C308.968 336.764 318.341 334.247 318.056 330.261C317.772 326.275 320.062 324.335 322.088 325.422C324.114 326.509 350.646 288.861 350.646 288.861C350.646 288.861 405.769 316.354 417.93 322.826C417.93 322.826 429.364 304.952 428.535 305.139C427.706 305.326 360.34 258.182 360.34 258.182C360.34 258.182 349.365 247.076 335.752 254.409C335.468 255.486 335.711 255.524 335.711 255.524L290.74 292.163L284.385 280.097L248.684 281.684Z" fill="#2F2E41"/>
<path d="M291.086 250.941C291 252.077 290.839 253.206 290.602 254.32C290.278 255.933 289.755 257.5 289.047 258.985C289.047 258.985 289.047 260.643 285.873 266.196C282.7 271.748 286.667 269.369 289.047 273.494C291.427 277.611 289.047 275.715 286.405 278.364C285.644 279.135 285.104 280.096 284.84 281.146C284.577 282.197 284.599 283.299 284.905 284.337C284.905 284.337 250.823 284.361 244.476 281.981C238.129 279.602 236.685 266.196 242.373 264.871C248.054 263.546 240.652 262.229 237.312 259.175C233.972 256.121 240.652 251.124 240.652 251.124C240.652 251.124 237.899 246.372 238.129 230.42C238.161 228.952 238.297 227.489 238.534 226.041C238.991 223.309 239.679 220.621 240.588 218.005C241.842 214.384 243.331 210.849 245.047 207.423C245.967 205.559 246.911 203.782 247.816 202.148C247.959 201.894 248.093 201.648 248.236 201.402C249.958 198.356 251.529 195.865 252.568 194.271C253.369 193.033 253.853 192.335 253.853 192.335L259.629 182.292L278.908 191.328L277.813 206.106L281.137 217.251L282.668 222.384L283.85 226.342L285.675 232.474C285.675 232.474 285.175 232.498 285.77 233.315C288.51 236.958 290.287 241.233 290.935 245.745C291.163 247.467 291.214 249.209 291.086 250.941Z" fill="#0086F8"/>
<path d="M346.76 252.534L346.398 252.417L300.256 237.56L317.259 181.784C317.597 180.674 318.184 179.654 318.974 178.803C319.763 177.952 320.736 177.291 321.819 176.871C322.901 176.45 324.065 176.281 325.222 176.375C326.38 176.47 327.501 176.826 328.5 177.416L357.987 194.835C360.321 196.213 362.097 198.366 363.004 200.92C363.912 203.474 363.893 206.265 362.951 208.806L346.76 252.534Z" fill="#2F2E41"/>
<path d="M346.947 256.08L300.434 241.103L317.437 185.328C317.775 184.217 318.362 183.198 319.152 182.346C319.941 181.495 320.914 180.834 321.997 180.414C323.079 179.993 324.243 179.824 325.4 179.918C326.558 180.013 327.678 180.369 328.678 180.959L359.573 196.382C364.214 199.123 364.106 206.218 361.951 212.039L346.947 256.08Z" fill="#0086F8"/>
<path d="M342.291 260.116C341.219 260.721 340.034 261.096 338.811 261.217C337.587 261.339 336.351 261.205 335.182 260.823L305.451 251.25C303.17 250.505 301.271 248.898 300.159 246.771C299.048 244.645 298.812 242.168 299.502 239.87L314.407 190.976C314.705 189.999 315.195 189.092 315.848 188.307C316.501 187.522 317.305 186.875 318.211 186.405C319.118 185.934 320.109 185.649 321.127 185.567C322.145 185.485 323.169 185.606 324.139 185.925L354.949 196.04C356.417 196.522 357.774 197.293 358.939 198.308C360.104 199.323 361.054 200.561 361.732 201.949C362.41 203.337 362.804 204.847 362.889 206.389C362.974 207.932 362.749 209.476 362.227 210.93L346.29 255.355C345.574 257.373 344.154 259.063 342.291 260.116Z" fill="#3F3D56"/>
<path d="M277.818 182.464C289.578 182.464 299.112 172.931 299.112 161.172C299.112 149.413 289.578 139.88 277.818 139.88C266.057 139.88 256.523 149.413 256.523 161.172C256.523 172.931 266.057 182.464 277.818 182.464Z" fill="#FF8300" fill-opacity="0.5"/>
<path d="M205.81 182.785C207.764 186.572 210.968 189.567 214.879 191.262C216.44 191.972 218.081 192.492 219.766 192.808C220.243 190.919 221.005 189.114 222.028 187.455C221.687 189.325 221.687 191.24 222.028 193.109C224.596 193.32 227.179 192.999 229.618 192.167C232.013 191.353 234.185 189.992 235.962 188.192C237.739 186.391 239.072 184.202 239.856 181.797C241.552 176.153 239.725 170.125 239.581 164.234C239.433 158.342 242.231 151.296 248.08 150.567C252.535 150.011 251.984 150.443 255.185 153.589C250.707 158.562 261.623 180.588 267.48 179.615C270.791 179.065 273.228 176.436 273.883 176.527C277.236 184.739 267.148 196.386 275.149 200.21L274.556 199.424C270.368 192.506 282.76 180.822 278.572 173.904C277.404 171.969 276.19 169.7 276.913 167.559C277.599 165.523 281.071 164.879 281.803 166.732C280.612 162.486 283.937 157.502 288.352 157.068C292.275 156.681 292.049 157.799 295.789 158.819C296.267 157.208 296.955 155.667 297.837 154.237C297.539 155.869 297.502 157.538 297.728 159.182C299.077 159.343 300.441 159.054 301.609 158.36C305.063 156.29 305.166 150.946 302.793 147.694C300.416 144.441 296.435 142.835 292.594 141.619C292.559 133.497 270.701 129.609 266.681 137.16C266.268 131.046 259.258 126.927 253.22 127.966C247.181 129.005 242.418 133.846 239.513 139.242C236.61 144.634 235.168 150.671 233.042 156.414C230.916 162.158 227.878 167.884 222.787 171.292C217.698 174.695 210.134 175.004 205.884 170.593C204.915 172.477 204.403 174.562 204.39 176.68C204.377 178.798 204.864 180.889 205.81 182.785Z" fill="#2F2E41"/>
<path d="M227.66 280.151C228.1 279.798 228.578 279.496 229.085 279.248C237.236 275.192 262.582 264.664 282.401 265.096C320.535 265.927 369.065 308.007 357.77 336.265C349.176 357.767 306.45 370 275.261 360.216C231.568 346.509 214.322 290.784 227.66 280.151Z" fill="#3F3D56"/>
<path d="M69.3515 435.057C56.891 432.706 45.8612 376.577 70.3769 348.933C78.7764 339.462 89.2535 335.339 103.19 331.503C183.405 309.422 244.586 330.466 252.807 335.604C261.011 340.731 275.392 417.972 257.002 428.905C246.655 435.057 226.147 438.133 215.985 430.956C201.034 420.395 226.13 393.003 214.96 374.565C202.284 353.642 135.536 346.594 102.072 367.388C66.3687 389.573 140.012 448.386 69.3515 435.057Z" fill="#3E9713"/>
<path d="M152.661 339.624H105.057C93.3058 328.364 84.9036 317.511 91.6305 308.503C91.6305 305.913 92.6593 303.43 94.4906 301.599C96.3218 299.768 98.8055 298.739 101.395 298.739H156.323C158.912 298.739 161.396 299.768 163.227 301.599C165.059 303.43 166.087 305.913 166.087 308.503C168.649 318.767 164.073 329.143 152.661 339.624Z" fill="#CCCCCC"/>
<path d="M144.112 286.448C143.66 286.468 143.213 286.35 142.831 286.108C142.449 285.866 142.15 285.513 141.976 285.096C141.801 284.679 141.759 284.218 141.856 283.776C141.952 283.334 142.181 282.933 142.513 282.626L142.664 282.025C142.645 281.977 142.625 281.929 142.604 281.881C142.149 280.807 141.387 279.89 140.413 279.248C139.439 278.605 138.296 278.264 137.129 278.269C135.962 278.273 134.822 278.622 133.853 279.272C132.884 279.922 132.128 280.844 131.681 281.922C129.894 286.224 127.62 290.534 127.06 295.083C126.813 297.094 126.917 299.132 127.367 301.107C123.171 291.955 120.992 282.008 120.978 271.939C120.977 269.413 121.117 266.888 121.398 264.377C121.631 262.319 121.953 260.275 122.365 258.246C124.614 247.237 129.443 236.918 136.455 228.137C139.849 226.285 142.594 223.438 144.319 219.979C144.944 218.735 145.386 217.408 145.631 216.038C145.248 216.088 144.187 210.258 144.476 209.9C143.943 209.091 142.988 208.688 142.405 207.898C139.507 203.97 135.514 204.656 133.43 209.994C128.977 212.241 128.934 215.968 131.666 219.552C133.405 221.832 133.643 224.917 135.168 227.358C135.012 227.559 134.848 227.754 134.691 227.955C131.823 231.642 129.323 235.602 127.228 239.778C127.737 235.1 127.129 230.368 125.453 225.972C123.754 221.874 120.57 218.423 117.766 214.881C114.398 210.626 107.492 212.483 106.898 217.877C106.893 217.929 106.887 217.981 106.882 218.033C107.298 218.268 107.706 218.517 108.105 218.781C108.606 219.116 108.994 219.594 109.219 220.153C109.443 220.713 109.494 221.327 109.363 221.915C109.233 222.503 108.928 223.039 108.488 223.451C108.048 223.863 107.494 224.132 106.899 224.224L106.838 224.233C106.986 225.734 107.248 227.222 107.622 228.683C104.025 242.592 111.791 247.658 122.88 247.885C123.124 248.011 123.363 248.136 123.608 248.256C121.502 254.222 120.182 260.436 119.679 266.743C119.394 270.464 119.411 274.202 119.729 277.92L119.71 277.788C118.907 273.654 116.701 269.923 113.465 267.226C108.66 263.279 101.87 261.826 96.6854 258.653C96.1344 258.299 95.4937 258.11 94.8389 258.109C94.1842 258.107 93.5426 258.293 92.9899 258.644C92.4372 258.995 91.9964 259.496 91.7195 260.09C91.4426 260.683 91.3412 261.343 91.4272 261.992C91.4342 262.038 91.4412 262.085 91.4484 262.131C92.2213 262.445 92.9738 262.808 93.7015 263.216C94.118 263.451 94.5257 263.701 94.9246 263.964C95.4257 264.299 95.814 264.777 96.0386 265.337C96.2632 265.896 96.3136 266.51 96.1832 267.098C96.0529 267.686 95.7478 268.222 95.308 268.634C94.8683 269.046 94.3143 269.315 93.7186 269.407L93.6576 269.416C93.6137 269.423 93.576 269.429 93.5321 269.435C94.8527 272.588 96.7061 275.49 99.0112 278.014C101.26 290.156 110.921 291.308 121.254 287.772H121.26C122.394 292.698 124.037 297.493 126.162 302.08H143.673C143.736 301.886 143.792 301.685 143.849 301.49C142.228 301.592 140.601 301.495 139.003 301.202C140.302 299.608 141.602 298.001 142.901 296.407C142.93 296.377 142.957 296.346 142.982 296.313C143.641 295.497 144.307 294.688 144.966 293.872L144.966 293.871C145.001 291.37 144.714 288.875 144.112 286.448Z" fill="#CCCCCC"/>
<path d="M203.837 337.074C204.127 337.919 204.678 338.651 205.41 339.164C206.143 339.677 207.019 339.945 207.913 339.929L225.376 339.479C226.277 339.462 227.147 339.153 227.858 338.6C228.569 338.047 229.081 337.278 229.319 336.41L231.79 309.987C232.667 310.385 233.621 310.581 234.584 310.561C236.272 310.519 237.875 309.808 239.039 308.584C240.203 307.36 240.833 305.724 240.791 304.036C240.748 302.347 240.037 300.745 238.813 299.581C237.589 298.417 235.953 297.787 234.264 297.829C233.879 297.828 233.496 297.868 233.12 297.948C232.71 297.506 232.213 297.154 231.66 296.915C231.106 296.676 230.509 296.556 229.907 296.562L203.044 297.256C202.821 297.264 202.599 297.292 202.381 297.338C201.792 297.448 201.233 297.683 200.742 298.026C200.252 298.37 199.84 298.815 199.536 299.331C199.232 299.847 199.041 300.423 198.978 301.019C198.915 301.614 198.98 302.217 199.169 302.785L203.837 337.074ZM232.297 308.193L234.055 301.897C234.255 301.17 234.26 300.402 234.069 299.673C234.154 299.672 234.229 299.632 234.315 299.632C235.52 299.607 236.686 300.061 237.558 300.895C238.429 301.729 238.934 302.874 238.962 304.079C238.99 305.284 238.539 306.452 237.708 307.325C236.877 308.199 235.733 308.707 234.528 308.739C233.748 308.763 232.977 308.575 232.297 308.193Z" fill="#CCCCCC"/>
<path d="M202.381 297.338C202.953 300.61 209.388 302.91 217.125 302.51C224.239 302.183 230.057 299.685 231.122 296.724C230.728 296.608 230.318 296.553 229.907 296.562L203.044 297.256C202.821 297.264 202.599 297.292 202.381 297.338Z" fill="white"/>
<path d="M0.935253 436.296L589.065 436.537C589.313 436.537 589.551 436.439 589.726 436.263C589.901 436.088 590 435.85 590 435.602C590 435.354 589.901 435.116 589.726 434.941C589.551 434.765 589.313 434.667 589.065 434.667L0.935253 434.425C0.687207 434.425 0.449323 434.524 0.273929 434.699C0.0985338 434.875 0 435.113 0 435.361C0 435.609 0.0985338 435.846 0.273929 436.022C0.449323 436.197 0.687207 436.296 0.935253 436.296Z" fill="#CACACA"/>
<path d="M330.799 227.301C329.199 227.36 327.686 228.04 326.58 229.197C325.475 230.354 324.864 231.897 324.879 233.497C324.887 233.822 324.922 234.146 324.984 234.465L306.526 245.361L308.76 256.671L332.431 239.012C333.736 238.654 334.886 237.874 335.701 236.794C336.516 235.714 336.951 234.395 336.937 233.042C336.922 232.272 336.756 231.513 336.447 230.808C336.138 230.102 335.694 229.465 335.139 228.931C334.584 228.398 333.929 227.978 333.212 227.698C332.495 227.417 331.73 227.281 330.96 227.296C330.906 227.297 330.852 227.299 330.799 227.301Z" fill="#FF8300" fill-opacity="0.5"/>
<path d="M315.679 253.276C315.185 252.615 314.973 252.338 314.86 252.414C314.571 252.588 314.849 254.925 312.817 258.998C309.955 264.719 279.949 273.482 279.949 273.482L276.255 266.719L260.005 237.001L254.404 213.18C254.208 212.349 254.113 211.498 254.12 210.645C259.114 207.131 264.417 204.079 269.965 201.526C272.181 202.783 273.871 204.796 274.725 207.197L285.911 238.557L290.374 251.077C290.374 251.077 298.248 245.448 301.104 246.481C303.956 247.521 304.766 246.063 302.902 241.396C301.038 236.729 303.836 241.533 307.092 241.838C310.354 242.148 307.091 241.838 308.632 239.858C310.173 237.877 320.136 236.763 320.136 236.763L320.347 237.205L324.208 245.145L325.313 247.427C325.313 247.427 321.22 251.867 320.233 252.752C319.241 253.643 318.934 253.582 319.42 254.597C319.899 255.608 317.393 255.562 315.679 253.276Z" fill="#0086F8"/>
</g>
<defs>
<clipPath id="clip0_1_32">
<rect width="590" height="437" fill="white"/>
</clipPath>
</defs>
</svg>
